<svg width="520" height="511" viewBox="0 0 520 511" fill="none" xmlns="http://www.w3.org/2000/svg">
<path d="M260 507.049C401.385 507.049 516 394.437 516 255.524C516 116.611 401.385 4 260 4C118.615 4 4 116.611 4 255.524C4 394.437 118.615 507.049 260 507.049Z" fill="#8CC9E5" stroke="black" stroke-width="7" stroke-miterlimit="10"/>
<path d="M260 4C242.243 8.13608 217.79 16.2506 193.483 33.5347C103.181 97.7227 104.588 224.716 104.927 255.524C105.194 280.001 106.735 417.935 204.8 482.487C225.419 496.06 245.36 503.131 259.988 507.049" stroke="black" stroke-width="7" stroke-miterlimit="10"/>
<path d="M260 4V507.049" stroke="black" stroke-width="7" stroke-miterlimit="10"/>
<path d="M260 507.049C277.757 502.913 302.21 494.798 326.517 477.514C416.819 413.326 415.412 286.333 415.072 255.524C414.806 231.047 413.265 93.1136 315.2 28.5617C294.58 14.9891 274.64 7.91775 260.012 4" stroke="black" stroke-width="7" stroke-miterlimit="10"/>
<path d="M55.707 103.921C87.8374 122.248 160.71 158.114 260 158.333C359.484 158.551 432.636 122.842 464.827 104.624" stroke="black" stroke-width="7" stroke-miterlimit="10"/>
<path d="M4 255.524H516" stroke="black" stroke-width="7" stroke-miterlimit="10"/>
<path d="M464.827 400.263C432.696 381.935 359.824 346.069 260.534 345.851C161.05 345.633 87.8981 381.341 55.707 399.559" stroke="black" stroke-width="7" stroke-miterlimit="10"/>
</svg>
